<?xml version="1.0" encoding="utf-8"?><!-- Uploaded to: SVG Repo, www.svgrepo.com, Generator: SVG Repo Mixer Tools -->
<svg width="800px" height="800px" viewBox="0 0 24 24" fill="none" xmlns="http://www.w3.org/2000/svg">
<path d="M21.9999 10.0588C21.9999 5.58405 17.5141 1.94354 12 1.94354C6.48627 1.94354 1.99994 5.58405 1.99994 10.0588C1.99994 14.0702 5.55749 17.4299 10.3632 18.065C10.6887 18.1354 11.132 18.2798 11.244 18.5582C11.3449 18.8109 11.31 19.207 11.2765 19.4623C11.2765 19.4623 11.1591 20.168 11.1336 20.3184C11.09 20.571 10.9327 21.3072 12 20.8576C13.0672 20.4078 17.7588 17.4664 19.8569 15.0518H19.8564C21.3056 13.4624 21.9999 11.8495 21.9999 10.0588Z" stroke="#000000" stroke-linejoin="round"/>
<path fill-rule="evenodd" clip-rule="evenodd" d="M16.3139 8.53744H18.4141V8.34641H16.1227V12.1925H18.4141V12.0014H16.3139V10.365H18.4141V10.1739H16.3139V8.53744ZM5.92147 12.0014V8.34641H5.73044V12.1925H8.02179V12.0014H5.92147ZM14.35 12.0433L11.6125 8.34634H11.295V12.1925H11.486V8.49641L14.223 12.1925H14.541V8.34634H14.35V12.0433ZM9.52202 8.34634V12.1925H9.71305V8.34634H9.52202Z" stroke="#000000" stroke-linejoin="round"/>
</svg>